<svg xmlns="http://www.w3.org/2000/svg" width="64" height="64" fill="none" viewBox="0 0 24 24" stroke="currentColor">
  <path stroke-linecap="round" stroke-linejoin="round" stroke-width="2" d="M3 8h2a2 2 0 002-2V3a2 2 0 00-2-2H3a2 2 0 00-2 2v3a2 2 0 002 2zm0 0h2a2 2 0 002 2v1a2 2 0 01-2 2H3a2 2 0 01-2-2v-1a2 2 0 002-2zm0 0h14v11a2 2 0 01-2 2H5a2 2 0 01-2-2V8zm5 11h6m-3-2v2m0-18h8a2 2 0 012 2v3a2 2 0 01-2 2h-8a2 2 0 01-2-2V3a2 2 0 012-2zm0 0h8a2 2 0 012 2v3a2 2 0 01-2 2h-8a2 2 0 01-2-2V3a2 2 0 012-2zm0 0h8a2 2 0 012 2v3a2 2 0 01-2 2h-8a2 2 0 01-2-2V3a2 2 0 012-2z" />
</svg>
